# This file uses centimeters as units for non-parametric coordinates.

mtllib PosterCard_1v02.mtl
g default
v -40.509216 -49.999946 0.250000
v 40.509216 -49.999946 0.250000
v -40.509216 49.999946 0.250000
v 40.509216 49.999946 0.250000
v -40.509216 49.999946 -0.250000
v 40.509216 49.999946 -0.250000
v -40.509216 -49.999946 -0.250000
v 40.509216 -49.999946 -0.250000
vt 0.995039 0.750000
vt 0.995039 0.000000
vt 0.995039 0.500000
vt 0.995039 0.250000
vt 1.000000 0.500000
vt 1.000000 0.250000
vt 1.000000 0.750000
vt 1.000000 1.000000
vt 0.995039 0.750000
vt 0.995039 1.000000
vt 1.000000 0.000000
vt 1.000000 0.250000
vt 1.000000 0.750000
vt 1.000000 0.500000
vt 0.000000 0.000000
vt 1.000000 0.000000
vt 1.000000 1.000000
vt 0.000000 1.000000
vt 0.995039 1.000000
vt 0.000000 1.000000
vt 0.000000 0.000000
vt 0.995039 0.000000
vt 0.995039 0.250000
vt 0.995039 0.500000
vn 0.000000 0.000000 1.000000
vn 0.000000 0.000000 1.000000
vn 0.000000 0.000000 1.000000
vn 0.000000 0.000000 1.000000
vn 0.000000 1.000000 0.000000
vn 0.000000 1.000000 0.000000
vn 0.000000 1.000000 0.000000
vn 0.000000 1.000000 0.000000
vn 0.000000 0.000000 -1.000000
vn 0.000000 0.000000 -1.000000
vn 0.000000 0.000000 -1.000000
vn 0.000000 0.000000 -1.000000
vn 0.000000 -1.000000 0.000000
vn 0.000000 -1.000000 0.000000
vn 0.000000 -1.000000 0.000000
vn 0.000000 -1.000000 0.000000
vn 1.000000 0.000000 0.000000
vn 1.000000 0.000000 0.000000
vn 1.000000 0.000000 0.000000
vn 1.000000 0.000000 0.000000
vn -1.000000 0.000000 0.000000
vn -1.000000 0.000000 0.000000
vn -1.000000 0.000000 0.000000
vn -1.000000 0.000000 0.000000
s off
g PosterCard_Origin1
usemtl blinn2SG
f 1/15/1 2/16/2 4/17/3 3/18/4
usemtl blinn3SG
f 3/3/5 4/23/6 6/6/7 5/5/8
f 5/19/9 6/20/10 8/21/11 7/22/12
f 7/7/13 8/8/14 2/10/15 1/9/16
f 2/2/17 8/11/18 6/12/19 4/4/20
f 7/13/21 1/1/22 3/24/23 5/14/24
